<svg width="56" height="56" viewBox="0 0 56 56" fill="none" xmlns="http://www.w3.org/2000/svg">
<mask id="mask0_1_307" style="mask-type:alpha" maskUnits="userSpaceOnUse" x="0" y="0" width="56" height="56">
<rect width="56" height="56" fill="#D9D9D9"/>
</mask>
<g mask="url(#mask0_1_307)">
<path d="M28 37.3334L31.2666 34.0668L27.5333 30.3334H37.3333V25.6667H27.5333L31.2666 21.9334L28 18.6667L18.6666 28.0001L28 37.3334ZM28 51.3334C24.7722 51.3334 21.7388 50.7209 18.9 49.4959C16.0611 48.2709 13.5916 46.6084 11.4916 44.5084C9.39163 42.4084 7.72913 39.939 6.50413 37.1001C5.27913 34.2612 4.66663 31.2279 4.66663 28.0001C4.66663 24.7723 5.27913 21.739 6.50413 18.9001C7.72913 16.0612 9.39163 13.5917 11.4916 11.4917C13.5916 9.39175 16.0611 7.72925 18.9 6.50425C21.7388 5.27925 24.7722 4.66675 28 4.66675C31.2277 4.66675 34.2611 5.27925 37.1 6.50425C39.9389 7.72925 42.4083 9.39175 44.5083 11.4917C46.6083 13.5917 48.2708 16.0612 49.4958 18.9001C50.7208 21.739 51.3333 24.7723 51.3333 28.0001C51.3333 31.2279 50.7208 34.2612 49.4958 37.1001C48.2708 39.939 46.6083 42.4084 44.5083 44.5084C42.4083 46.6084 39.9389 48.2709 37.1 49.4959C34.2611 50.7209 31.2277 51.3334 28 51.3334ZM28 46.6668C33.2111 46.6668 37.625 44.8584 41.2416 41.2418C44.8583 37.6251 46.6666 33.2112 46.6666 28.0001C46.6666 22.789 44.8583 18.3751 41.2416 14.7584C37.625 11.1417 33.2111 9.33342 28 9.33342C22.7888 9.33342 18.375 11.1417 14.7583 14.7584C11.1416 18.3751 9.33329 22.789 9.33329 28.0001C9.33329 33.2112 11.1416 37.6251 14.7583 41.2418C18.375 44.8584 22.7888 46.6668 28 46.6668Z" fill="#CCCCCC" fill-opacity="0.25"/>
</g>
</svg>
