<svg width="48" height="48" viewBox="0 0 48 48" fill="none" xmlns="http://www.w3.org/2000/svg">
<path d="M24 14.6666L20.7333 17.9332L24.4667 21.6666L14.6667 21.6666V26.3333L24.4667 26.3333L20.7333 30.0666L24 33.3333L33.3333 23.9999L24 14.6666ZM24 0.66658C27.2278 0.66658 30.2611 1.27908 33.1 2.50408C35.9389 3.72908 38.4083 5.39158 40.5083 7.49158C42.6083 9.59158 44.2708 12.061 45.4958 14.8999C46.7208 17.7388 47.3333 20.7721 47.3333 23.9999C47.3333 27.2277 46.7208 30.261 45.4958 33.0999C44.2708 35.9388 42.6083 38.4083 40.5083 40.5083C38.4083 42.6083 35.9389 44.2708 33.1 45.4958C30.2611 46.7208 27.2278 47.3333 24 47.3333C20.7722 47.3333 17.7389 46.7208 14.9 45.4958C12.0611 44.2708 9.59167 42.6083 7.49167 40.5083C5.39167 38.4083 3.72918 35.9388 2.50417 33.0999C1.27917 30.261 0.666672 27.2277 0.666672 23.9999C0.666672 20.7721 1.27917 17.7388 2.50417 14.8999C3.72918 12.061 5.39167 9.59158 7.49167 7.49158C9.59167 5.39158 12.0611 3.72908 14.9 2.50408C17.7389 1.27908 20.7722 0.66658 24 0.66658ZM24 5.33325C18.7889 5.33325 14.375 7.14158 10.7583 10.7582C7.14167 14.3749 5.33334 18.7888 5.33334 23.9999C5.33334 29.211 7.14167 33.6249 10.7583 37.2416C14.375 40.8583 18.7889 42.6666 24 42.6666C29.2111 42.6666 33.625 40.8583 37.2417 37.2416C40.8583 33.6249 42.6667 29.211 42.6667 23.9999C42.6667 18.7888 40.8583 14.3749 37.2417 10.7582C33.625 7.14158 29.2111 5.33325 24 5.33325Z" fill="#CCCCCC" fill-opacity="0.25"/>
</svg>
