<svg width="18" height="16" viewBox="0 0 18 16" fill="none" xmlns="http://www.w3.org/2000/svg">
<path d="M3.5 1.5H12.5V3H14V1.5C14 0.6875 13.3125 0 12.5 0H3.5C2.65625 0 2 0.6875 2 1.5V6H3.5V1.5ZM10.5 7H1.5C0.65625 7 0 7.6875 0 8.5V14.5C0 15.3438 0.65625 16 1.5 16H10.5C11.3125 16 12 15.3438 12 14.5V8.5C12 7.6875 11.3125 7 10.5 7ZM10.5 14.5H1.5V10.75C1.9375 11.0938 4 12.5938 4 12.5938C4.4375 12.9375 5.1875 13.5 6 13.5C6.78125 13.5 7.53125 12.9375 8 12.5938C8 12.5938 10.0312 11.0938 10.5 10.75V14.5ZM10.5 8.9375C10.4062 9 7 11.5 6.8125 11.5938C6.5625 11.7812 6.21875 12 6 12C5.6875 12 5.28125 11.6875 5 11.4688C4.90625 11.375 1.5625 8.90625 1.5 8.84375V8.5H10.5V8.9375ZM16.5 4H7.5C6.65625 4 6 4.6875 6 5.5V6H7.5V5.5H16.5V11.5H13V13H16.5C17.3125 13 18 12.3438 18 11.5V5.5C18 4.6875 17.3125 4 16.5 4ZM13.5 6.5V8.5H15.5V6.5H13.5Z" fill="#999999"/>
</svg>
