<svg width="56" height="56" viewBox="0 0 56 56" fill="none" xmlns="http://www.w3.org/2000/svg">
<path d="M49 17.4037L38.5 22.855C38.5012 22.7761 38.4806 22.6984 38.4404 22.6305C38.4003 22.5626 38.3422 22.507 38.2725 22.47L29.75 17.885L29.33 18.655L37.625 23.1V23.31L28.105 28.2188L7 17.675L22.9775 9.555L28 7L33.25 9.625L49 17.3863V17.4037Z" fill="#72BAE7" stroke="#2E3192" stroke-linejoin="round"/>
<path d="M28.105 28.2187L37.59 23.3099V26.3199L28.105 31.2287L14.5863 24.4737L7 20.6849V17.6749L14.5863 21.4637L28.105 28.2187Z" fill="white" stroke="#2E3192" stroke-linejoin="round"/>
<path d="M49.0001 20.4225L41.1426 24.4825L38.4651 25.865V22.855L41.1426 21.4725L48.9738 17.4125L49.0001 20.4225Z" fill="white" stroke="#2E3192" stroke-linejoin="round"/>
<path d="M28.0875 32.97L27.8863 42.945C23.2575 42.945 19.1363 40.3988 16.2663 36.3738C15.6389 35.4736 15.083 34.5257 14.6038 33.5388V26.25L28.0875 32.97Z" fill="white" stroke="#2E3192" stroke-linejoin="round"/>
<path d="M37.6251 28.0701V38.6226C36.379 39.9554 34.8781 41.0247 33.2113 41.7672C31.5445 42.5097 29.7457 42.9102 27.9214 42.9451L28.1226 32.9701L37.6251 28.0701Z" fill="#72BAE7" stroke="#2E3192" stroke-linejoin="round"/>
<path d="M41.125 26.25V33.5475C40.6463 34.5393 40.0873 35.4904 39.4538 36.3913C39.1562 36.8179 38.8379 37.2296 38.5 37.625V27.615L41.125 26.25Z" fill="#72BAE7" stroke="#2E3192" stroke-linejoin="round"/>
<path d="M27.58 19.11C28.822 19.11 29.8288 18.2051 29.8288 17.0888C29.8288 15.9725 28.822 15.0675 27.58 15.0675C26.3381 15.0675 25.3313 15.9725 25.3313 17.0888C25.3313 18.2051 26.3381 19.11 27.58 19.11Z" fill="white" stroke="#2E3192" stroke-linejoin="round"/>
<path d="M38.5 22.8374V42.9624H37.625V23.0999L29.365 18.6549L29.785 17.8849L38.2725 22.4524C38.3422 22.4894 38.4003 22.5449 38.4404 22.6129C38.4805 22.6808 38.5012 22.7585 38.5 22.8374Z" fill="white" stroke="#2E3192" stroke-linejoin="round"/>
<path d="M38.0275 46.3926C38.9505 46.3926 39.6987 45.6208 39.6987 44.6688C39.6987 43.7168 38.9505 42.9451 38.0275 42.9451C37.1044 42.9451 36.3562 43.7168 36.3562 44.6688C36.3562 45.6208 37.1044 46.3926 38.0275 46.3926Z" fill="#72BAE7" stroke="#2E3192" stroke-linejoin="round"/>
<path d="M39.2087 47.005L39.935 49" stroke="#2E3192" stroke-linecap="round" stroke-linejoin="round"/>
<path d="M36.8549 46.9525L36.1287 48.9475" stroke="#2E3192" stroke-linecap="round" stroke-linejoin="round"/>
<path d="M38.0276 46.97L38.0451 48.9387" stroke="#2E3192" stroke-linecap="round" stroke-linejoin="round"/>
</svg>
